<svg xmlns="http://www.w3.org/2000/svg" viewBox="25 15 162 139" focusable="false">
  <path fill="currentColor" fill-rule="evenodd" d="M39 43L36 29C35 22 41 18 47 22L58 34C64 31 72 31 79 35L88 29C94 25 101 29 101 36C101 43 97 49 91 53C95 59 96 67 93 74C105 79 115 88 122 100C133 105 147 109 161 107C171 105 179 110 180 119C181 129 172 137 162 138C145 139 130 132 118 124C112 139 101 148 87 149H48V117C36 108 30 96 31 82C32 69 39 59 50 54C45 51 41 47 39 43Z M52 60L74 57L69 66L54 68ZM67 77C77 79 86 85 91 95C83 91 74 90 64 93C68 88 69 82 67 77ZM91 103C97 98 106 100 108 108C116 110 117 119 110 123C109 131 99 134 94 128C86 130 81 122 85 115C81 109 84 103 91 103Z"/>
</svg>
